<?xml version="1.0" standalone="no"?>
<!DOCTYPE svg PUBLIC "-//W3C//DTD SVG 20010904//EN"
 "http://www.w3.org/TR/2001/REC-SVG-20010904/DTD/svg10.dtd">
<svg version="1.0" xmlns="http://www.w3.org/2000/svg"
 width="128.000000pt" height="128.000000pt" viewBox="0 0 128.000000 128.000000"
 preserveAspectRatio="xMidYMid meet">
<metadata>
Created by potrace 1.14, written by Peter Selinger 2001-2017
</metadata>
<g transform="translate(0.000000,128.000000) scale(0.100000,-0.100000)"
fill="#000000" stroke="none">
<path d="M280 1182 c-106 -29 -159 -103 -165 -230 -3 -68 -13 -370 -20 -597
-2 -95 13 -149 57 -194 66 -67 54 -65 473 -67 423 -1 440 1 500 63 47 48 62
101 59 208 -1 92 -13 422 -19 575 -5 122 -29 170 -112 221 l-38 24 -360 1
c-199 0 -367 -1 -375 -4z"/>
</g>
</svg>
